<?xml version="1.0" standalone="no"?>
<!DOCTYPE svg PUBLIC "-//W3C//DTD SVG 20010904//EN"
 "http://www.w3.org/TR/2001/REC-SVG-20010904/DTD/svg10.dtd">
<svg version="1.0" xmlns="http://www.w3.org/2000/svg"
 width="200.000000pt" height="200.000000pt" viewBox="0 0 200.000000 200.000000"
 preserveAspectRatio="xMidYMid meet">

<g transform="translate(0.000000,200.000000) scale(0.100000,-0.100000)"
fill="#000000" stroke="none">
<path d="M802 1496 c-27 -25 -64 -52 -84 -60 -46 -19 -54 -32 -63 -91 -4 -27
-18 -70 -31 -95 -30 -56 -30 -62 0 -113 14 -23 28 -64 31 -92 9 -59 17 -71 63
-91 20 -8 57 -35 84 -60 46 -43 52 -45 86 -38 47 10 97 10 144 0 34 -7 40 -5
86 38 27 25 64 52 84 60 46 20 54 32 63 91 3 28 17 69 31 92 30 51 30 57 0
113 -13 25 -27 68 -31 95 -9 59 -17 72 -63 91 -20 8 -57 35 -84 60 -46 43 -52
45 -86 38 -20 -5 -53 -8 -72 -8 -19 0 -52 3 -72 8 -34 7 -40 5 -86 -38z m299
-188 c44 -25 59 -39 59 -55 0 -13 -8 -24 -20 -28 -11 -3 -20 -10 -20 -15 0 -5
9 -12 20 -15 28 -9 25 -41 -6 -61 -20 -14 -27 -15 -37 -4 -9 10 -9 11 1 6 7
-4 12 -1 12 8 0 8 -19 25 -42 38 -32 17 -44 30 -46 51 -4 32 3 33 43 7 35 -23
45 -25 45 -7 0 6 -26 25 -58 42 -31 16 -59 31 -62 33 -6 4 31 32 43 32 4 0 35
-15 68 -32z m-195 14 c7 -4 26 -52 43 -106 18 -54 36 -107 41 -116 7 -14 4
-22 -15 -34 -13 -9 -26 -16 -29 -16 -3 0 -21 51 -41 113 -39 118 -50 140 -69
131 -6 -3 0 4 14 15 27 22 39 25 56 13z m-20 -180 c-6 -6 -66 31 -66 41 0 4 7
22 17 40 l16 32 19 -54 c10 -30 16 -56 14 -59z m-110 18 c0 -12 -4 -16 -9 -11
-5 5 -6 14 -3 20 10 15 12 14 12 -9z m296 -40 c-3 -22 -34 -50 -55 -50 -1 0 0
25 1 55 l4 55 27 -16 c22 -13 26 -22 23 -44z m-262 15 c-7 -9 -15 -13 -17 -11
-7 7 7 26 19 26 6 0 6 -6 -2 -15z m91 -42 c13 -16 12 -17 -3 -4 -10 7 -18 15
-18 17 0 8 8 3 21 -13z"/>
<path d="M290 662 c0 -72 3 -89 15 -89 10 0 15 11 15 34 0 29 3 33 25 33 18 0
25 5 25 19 0 15 -6 19 -25 16 -20 -2 -25 2 -25 21 0 20 5 24 33 24 23 0 34 5
34 15 0 11 -12 15 -49 15 l-48 0 0 -88z"/>
<path d="M440 735 c0 -8 7 -15 15 -15 12 0 15 -15 15 -73 0 -59 3 -74 15 -74
12 0 15 15 15 74 0 54 3 73 13 73 8 0 14 7 14 15 0 11 -12 15 -44 15 -32 0
-43 -4 -43 -15z"/>
<path d="M572 659 l3 -92 48 -1 c39 -1 47 2 47 17 0 13 -8 17 -35 17 -28 0
-35 4 -35 20 0 15 7 20 28 20 21 0 28 5 28 20 0 15 -7 20 -28 20 -21 0 -28 5
-28 20 0 16 7 20 35 20 24 0 35 5 35 15 0 11 -12 15 -50 15 l-51 0 3 -91z"/>
<path d="M710 662 c0 -72 3 -89 15 -89 10 0 15 11 15 34 0 30 3 34 23 31 16
-2 23 -11 27 -33 3 -16 10 -31 17 -32 8 -2 12 18 11 70 -1 87 -14 107 -70 107
l-38 0 0 -88z m75 33 c0 -30 -39 -27 -43 3 -3 20 0 23 20 20 15 -2 23 -10 23
-23z"/>
<path d="M1018 739 c-11 -6 -18 -22 -18 -40 0 -23 7 -34 35 -50 19 -12 35 -27
35 -35 0 -19 -38 -18 -42 1 -2 10 -7 12 -18 5 -25 -16 1 -45 40 -45 61 0 68
71 10 95 -31 13 -39 33 -18 46 6 4 16 0 23 -9 15 -21 35 -22 35 -3 0 36 -47
56 -82 35z"/>
<path d="M1157 732 c-21 -22 -23 -120 -4 -144 27 -36 97 -16 97 28 0 17 -21
14 -36 -5 -6 -8 -18 -11 -28 -8 -23 9 -23 105 0 114 10 4 20 0 26 -10 9 -17
38 -24 38 -9 0 4 -7 18 -16 30 -18 27 -55 29 -77 4z"/>
<path d="M1436 728 c-21 -30 -21 -121 0 -142 24 -25 62 -24 82 2 20 26 16 126
-6 145 -26 23 -58 21 -76 -5z m59 -68 c0 -48 -2 -55 -20 -55 -15 0 -21 8 -23
34 -5 50 6 83 26 79 14 -3 17 -14 17 -58z"/>
<path d="M1580 730 c-25 -25 -27 -105 -4 -138 17 -24 62 -30 82 -10 18 18 15
133 -4 152 -21 22 -50 20 -74 -4z m58 -73 c3 -52 1 -57 -18 -57 -18 0 -20 6
-20 53 0 30 3 57 7 61 17 16 28 -5 31 -57z"/>
<path d="M154 690 c-10 -28 -23 -50 -28 -50 -6 0 -11 -16 -12 -35 -1 -41 23
-56 32 -20 8 34 50 34 65 1 7 -14 17 -22 24 -20 15 6 14 74 -2 74 -6 0 -19 20
-29 45 -9 25 -20 48 -24 50 -5 3 -16 -18 -26 -45z m31 -40 c3 -5 1 -10 -4 -10
-6 0 -11 5 -11 10 0 6 2 10 4 10 3 0 8 -4 11 -10z"/>
<path d="M1280 657 c0 -68 3 -84 15 -84 10 0 15 11 15 34 0 29 3 33 25 33 22
0 25 -4 25 -33 0 -23 5 -34 15 -34 12 0 15 16 15 84 0 65 -3 83 -14 83 -9 0
-16 -12 -18 -32 -2 -25 -8 -33 -23 -33 -15 0 -21 8 -23 33 -2 20 -9 32 -18 32
-11 0 -14 -18 -14 -83z"/>
<path d="M1710 656 l0 -84 50 -4 c42 -2 50 0 50 15 0 13 -8 17 -35 17 l-35 0
0 70 c0 56 -3 70 -15 70 -12 0 -15 -16 -15 -84z"/>
</g>
</svg>
